<svg id="svg" version="1.1" xmlns="http://www.w3.org/2000/svg" xmlns:xlink="http://www.w3.org/1999/xlink" width="400" height="400" viewBox="0, 0, 400,400"><g id="svgg"><path id="path0" d="M56.445 168.745 C 54.727 169.876,54.769 169.196,54.726 196.790 C 54.678 228.235,54.319 226.698,61.670 226.478 C 66.883 226.323,66.661 226.851,67.018 213.770 L 67.298 203.516 86.909 203.516 C 97.694 203.516,108.392 203.630,110.681 203.770 L 114.844 204.025 114.845 214.024 C 114.847 223.396,114.897 224.105,115.643 225.329 L 116.439 226.635 120.298 226.501 C 127.402 226.255,127.028 228.000,126.878 195.832 L 126.758 169.984 125.781 168.945 C 124.825 167.926,124.720 167.908,120.645 168.035 C 114.415 168.229,114.844 167.314,114.844 180.397 L 114.844 191.141 103.418 190.884 C 97.134 190.742,86.411 190.626,79.590 190.626 L 67.188 190.625 67.188 181.016 C 67.188 168.220,67.064 167.966,60.821 167.971 C 58.290 167.973,57.371 168.136,56.445 168.745 M129.846 177.775 C 128.606 179.144,128.487 215.987,129.718 217.218 C 131.545 219.045,138.863 217.122,138.606 214.883 C 138.591 214.754,138.600 212.144,138.626 209.082 L 138.672 203.516 140.527 203.503 C 143.860 203.481,144.630 202.210,144.500 196.941 C 144.365 191.443,143.733 190.625,139.623 190.625 L 138.329 190.625 138.329 185.124 C 138.329 178.836,138.090 178.152,135.638 177.417 C 133.140 176.669,130.711 176.819,129.846 177.775 M44.968 177.981 C 43.401 179.078,42.969 180.815,42.966 186.023 L 42.964 190.820 40.944 190.863 C 37.747 190.931,37.409 191.597,37.568 197.529 C 37.718 203.179,37.972 203.646,40.907 203.686 L 42.773 203.711 42.993 208.984 C 43.237 214.821,43.603 216.010,45.523 217.197 C 47.163 218.211,50.728 218.260,51.926 217.285 L 52.766 216.602 52.653 197.618 C 52.561 182.229,52.438 178.513,52.003 177.989 C 51.252 177.085,46.256 177.079,44.968 177.981 " stroke="none" fill="#0465bb" fill-rule="evenodd"></path><path id="path1" d="M278.689 173.825 C 265.483 175.764,262.467 192.457,274.346 197.865 C 275.457 198.372,278.301 199.342,280.664 200.022 C 287.936 202.115,289.820 203.439,289.944 206.546 C 290.206 213.118,276.689 213.563,275.584 207.019 L 275.322 205.469 270.545 205.469 L 265.768 205.469 266.036 207.738 C 267.675 221.642,291.410 225.074,297.920 212.348 C 302.070 204.234,297.412 196.315,286.523 192.972 C 277.592 190.229,275.614 188.680,276.559 185.170 C 277.776 180.648,286.677 180.275,288.536 184.668 L 289.073 185.938 293.610 185.938 L 298.147 185.938 297.902 184.409 C 296.649 176.573,288.932 172.321,278.689 173.825 M161.328 196.653 L 161.328 219.141 166.113 219.141 L 170.898 219.141 170.786 210.743 L 170.674 202.344 173.382 202.344 L 176.091 202.344 179.706 208.496 C 181.694 211.880,183.922 215.659,184.657 216.895 L 185.994 219.141 191.825 219.141 C 195.032 219.141,197.656 219.059,197.656 218.958 C 197.656 218.858,196.133 216.617,194.270 213.978 C 192.408 211.339,189.920 207.773,188.741 206.055 C 187.562 204.336,186.361 202.652,186.072 202.313 C 185.242 201.338,185.430 200.994,187.290 200.090 C 197.542 195.109,196.663 179.549,185.896 175.407 C 183.495 174.483,182.974 174.440,172.363 174.305 L 161.328 174.164 161.328 196.653 M340.161 183.202 L 340.283 187.500 336.938 187.500 L 333.594 187.500 333.594 191.406 L 333.594 195.313 336.888 195.313 L 340.182 195.313 340.306 204.231 L 340.430 213.150 341.616 215.071 C 343.598 218.280,347.834 219.731,354.004 219.314 L 357.813 219.056 357.813 214.971 C 357.813 210.901,357.809 210.886,356.934 211.199 C 356.450 211.372,354.970 211.511,353.644 211.509 C 349.413 211.501,348.834 210.269,348.830 201.270 L 348.828 195.313 353.125 195.313 L 357.422 195.313 357.422 191.406 L 357.422 187.500 353.125 187.500 L 348.828 187.500 348.828 183.203 L 348.828 178.906 344.434 178.905 L 340.039 178.905 340.161 183.202 M181.445 182.801 C 184.029 183.398,185.468 185.313,185.451 188.133 C 185.420 193.236,182.947 194.972,175.323 195.244 L 170.703 195.409 170.703 188.915 L 170.703 182.422 175.293 182.431 C 177.817 182.436,180.586 182.603,181.445 182.801 M208.891 186.908 C 191.592 191.668,193.517 218.921,211.218 219.850 C 218.202 220.217,223.884 217.327,226.601 212.027 C 227.560 210.157,227.632 210.293,225.488 209.937 C 224.468 209.767,223.545 209.605,223.438 209.576 C 220.315 208.732,219.201 208.916,217.759 210.511 C 213.730 214.971,205.859 212.422,205.859 206.656 L 205.859 205.469 216.769 205.469 L 227.678 205.469 227.934 203.418 C 229.228 193.026,218.972 184.133,208.891 186.908 M246.021 187.055 C 243.637 188.020,241.508 189.347,241.030 190.167 C 240.739 190.666,240.646 190.429,240.637 189.160 L 240.625 187.500 235.938 187.500 L 231.250 187.500 231.250 210.156 L 231.250 232.813 235.953 232.813 L 240.655 232.813 240.542 224.609 C 240.480 220.097,240.492 216.406,240.569 216.406 C 240.645 216.406,241.348 216.913,242.131 217.533 C 248.366 222.467,258.331 219.458,261.668 211.633 C 267.425 198.136,257.431 182.438,246.021 187.055 M312.798 187.087 C 308.260 188.537,305.142 191.369,303.056 195.933 C 301.638 199.035,301.726 207.888,303.207 211.048 C 308.609 222.577,324.798 223.158,330.747 212.035 L 331.639 210.366 329.589 209.901 C 324.695 208.790,323.320 208.828,322.485 210.096 C 319.513 214.614,312.575 213.403,310.802 208.057 C 309.911 205.371,309.515 205.469,321.312 205.469 L 332.031 205.469 332.086 204.199 C 332.321 198.775,331.315 195.024,328.751 191.760 C 325.182 187.218,318.506 185.262,312.798 187.087 M216.200 194.172 C 217.700 194.893,219.140 197.059,219.141 198.593 L 219.142 199.805 212.651 199.688 L 206.160 199.572 206.405 198.321 C 207.176 194.384,212.207 192.252,216.200 194.172 M321.064 194.450 C 322.408 195.454,323.334 196.855,323.634 198.340 L 323.890 199.609 317.236 199.609 L 310.582 199.609 311.160 197.969 C 312.596 193.899,317.834 192.038,321.064 194.450 M251.690 195.820 C 256.775 199.699,255.392 210.161,249.565 211.891 C 243.557 213.675,239.022 207.103,241.200 199.767 C 242.597 195.064,248.022 193.023,251.690 195.820 " stroke="none" fill="#d4055c" fill-rule="evenodd"></path><path id="path2" d="M0.000 200.000 L 0.000 400.000 200.000 400.000 L 400.000 400.000 400.000 200.000 L 400.000 0.000 200.000 0.000 L 0.000 0.000 0.000 200.000 M65.028 168.374 C 67.064 169.376,67.175 170.019,67.182 180.762 L 67.188 190.625 79.590 190.626 C 86.411 190.626,97.131 190.742,103.412 190.884 L 114.831 191.141 114.935 180.280 L 115.039 169.420 116.142 168.597 C 117.497 167.585,123.401 167.399,125.110 168.314 C 126.982 169.315,126.981 169.307,126.866 197.275 C 126.736 228.929,127.294 226.563,119.964 226.563 C 114.791 226.563,115.064 227.221,114.923 214.413 L 114.808 203.906 90.998 203.906 L 67.188 203.906 67.186 206.934 C 67.180 225.809,66.914 226.697,61.308 226.595 C 54.221 226.466,54.688 228.581,54.688 196.584 C 54.688 167.733,54.550 169.307,57.179 168.119 C 58.711 167.427,63.413 167.580,65.028 168.374 M289.425 174.457 C 294.134 176.203,298.046 180.835,298.047 184.668 L 298.047 185.938 293.359 185.938 C 289.405 185.938,288.672 185.844,288.672 185.338 C 288.672 181.373,280.224 180.216,277.409 183.794 C 275.002 186.855,278.291 191.029,283.913 192.048 C 305.226 195.913,304.021 220.313,282.516 220.313 C 273.299 220.313,265.659 214.083,265.629 206.543 L 265.625 205.469 270.461 205.469 L 275.298 205.469 275.731 207.189 C 277.360 213.658,289.844 213.064,289.844 206.517 C 289.844 203.405,287.279 201.846,278.125 199.392 C 269.021 196.953,264.672 189.877,267.586 182.246 C 270.392 174.899,280.699 171.223,289.425 174.457 M184.904 175.003 C 196.540 178.896,198.183 194.996,187.457 200.020 C 185.201 201.077,185.159 200.814,188.308 205.299 C 189.656 207.219,191.436 209.756,192.263 210.938 C 193.091 212.119,194.736 214.448,195.919 216.113 L 198.069 219.141 191.906 219.130 L 185.742 219.119 183.008 214.380 C 181.504 211.773,179.792 208.833,179.204 207.847 C 178.615 206.861,177.664 205.220,177.091 204.199 L 176.048 202.344 173.571 202.344 L 171.094 202.344 171.094 210.742 L 171.094 219.141 166.211 219.141 L 161.328 219.141 161.328 196.680 L 161.328 174.219 171.973 174.228 C 181.488 174.237,182.860 174.319,184.904 175.003 M51.925 177.982 C 52.718 178.991,52.734 179.383,52.734 197.876 C 52.734 219.509,53.007 217.969,49.171 217.969 C 44.230 217.969,42.991 216.112,42.977 208.691 L 42.969 203.906 41.044 203.906 C 37.947 203.906,37.500 203.038,37.500 197.018 C 37.500 191.196,37.814 190.625,41.016 190.625 L 42.969 190.625 42.969 185.730 C 42.969 178.466,43.973 176.982,48.897 176.962 C 50.834 176.954,51.218 177.084,51.925 177.982 M136.323 177.637 C 138.378 178.668,138.660 179.608,138.666 185.449 L 138.672 190.625 140.792 190.625 C 144.006 190.625,144.531 191.486,144.531 196.752 C 144.531 202.393,143.577 203.906,140.021 203.906 L 138.672 203.906 138.672 209.483 C 138.672 216.882,137.902 217.969,132.659 217.969 C 128.650 217.969,128.906 219.352,128.906 197.739 C 128.906 179.311,128.986 178.086,130.234 177.252 C 131.062 176.700,134.943 176.945,136.323 177.637 M349.219 183.203 L 349.219 187.500 353.320 187.500 L 357.422 187.500 357.422 191.406 L 357.422 195.313 353.339 195.313 L 349.256 195.313 349.140 201.644 C 348.963 211.248,350.479 213.039,357.129 211.086 C 357.749 210.903,357.813 211.263,357.813 214.962 L 357.813 219.038 356.348 219.281 C 352.587 219.902,347.106 219.282,344.469 217.937 C 340.821 216.076,339.844 212.831,339.844 202.580 L 339.844 195.313 336.719 195.313 L 333.594 195.313 333.594 191.406 L 333.594 187.500 336.719 187.500 L 339.844 187.500 339.844 183.203 L 339.844 178.906 344.531 178.906 L 349.219 178.906 349.219 183.203 M170.703 188.628 L 170.703 194.922 175.052 194.922 C 182.209 194.922,184.836 193.518,185.348 189.420 C 186.000 184.206,184.003 182.679,176.271 182.479 L 170.703 182.335 170.703 188.628 M219.701 188.035 C 225.289 190.797,228.806 197.532,227.942 203.816 L 227.688 205.664 216.739 205.563 L 205.789 205.461 206.064 207.125 C 207.014 212.882,215.124 214.731,218.162 209.883 C 218.671 209.072,219.169 208.699,219.584 208.821 C 219.936 208.924,220.815 209.090,221.537 209.188 C 227.677 210.028,227.768 210.078,226.741 212.027 C 221.013 222.892,203.587 222.688,198.654 211.697 C 191.823 196.474,205.549 181.041,219.701 188.035 M253.004 186.877 C 265.271 190.143,267.357 211.544,256.055 218.167 C 251.237 220.990,245.010 220.584,241.504 217.219 L 240.625 216.376 240.625 224.594 L 240.625 232.813 235.938 232.813 L 231.250 232.813 231.250 210.156 L 231.250 187.500 235.938 187.500 L 240.625 187.500 240.625 188.900 L 240.625 190.300 242.090 189.152 C 245.592 186.407,248.758 185.747,253.004 186.877 M321.727 186.859 C 327.986 188.267,333.027 196.270,332.218 203.516 L 331.978 205.664 321.262 205.554 L 310.547 205.445 310.555 206.531 C 310.602 212.471,319.458 214.954,322.462 209.869 L 323.129 208.741 326.310 209.275 C 328.060 209.569,329.891 209.821,330.378 209.836 C 332.930 209.914,329.948 214.855,325.686 217.609 C 314.446 224.874,300.625 216.163,301.675 202.476 C 302.563 190.897,310.882 184.418,321.727 186.859 M209.369 194.474 C 207.991 195.207,206.268 197.672,206.256 198.926 C 206.251 199.549,206.815 199.609,212.695 199.609 L 219.141 199.609 219.138 198.535 C 219.129 194.719,213.391 192.334,209.369 194.474 M313.867 194.647 C 312.347 195.507,310.996 197.494,310.956 198.926 C 310.939 199.550,311.498 199.609,317.390 199.609 L 323.843 199.609 323.590 198.535 C 322.569 194.198,317.935 192.345,313.867 194.647 M245.324 195.129 C 238.040 198.402,239.894 212.101,247.622 212.108 C 256.599 212.116,257.253 195.492,248.308 194.669 C 247.359 194.582,246.114 194.773,245.324 195.129 " stroke="none" fill="#f4f4f4" fill-rule="evenodd"></path><path id="path3" d="M59.269 167.860 C 59.962 167.946,61.193 167.948,62.003 167.863 C 62.813 167.779,62.246 167.708,60.742 167.706 C 59.238 167.705,58.575 167.774,59.269 167.860 M119.238 167.863 C 120.044 167.947,121.362 167.947,122.168 167.863 C 122.974 167.778,122.314 167.709,120.703 167.709 C 119.092 167.709,118.433 167.778,119.238 167.863 M47.559 177.236 C 48.257 177.322,49.399 177.322,50.098 177.236 C 50.796 177.149,50.225 177.078,48.828 177.078 C 47.432 177.078,46.860 177.149,47.559 177.236 M138.432 185.156 C 138.432 187.842,138.494 188.940,138.570 187.598 C 138.647 186.255,138.647 184.058,138.570 182.715 C 138.494 181.372,138.432 182.471,138.432 185.156 M77.637 203.808 C 83.491 203.869,93.071 203.869,98.926 203.808 C 104.780 203.748,99.990 203.698,88.281 203.698 C 76.572 203.698,71.782 203.748,77.637 203.808 M139.355 203.791 C 139.839 203.884,140.630 203.884,141.113 203.791 C 141.597 203.698,141.201 203.622,140.234 203.622 C 139.268 203.622,138.872 203.698,139.355 203.791 " stroke="none" fill="#95c1de" fill-rule="evenodd"></path><path id="path4" d="M348.976 183.203 C 348.976 185.674,349.039 186.685,349.117 185.449 C 349.194 184.214,349.194 182.192,349.117 180.957 C 349.039 179.722,348.976 180.732,348.976 183.203 M339.990 183.398 C 339.991 185.762,340.055 186.678,340.133 185.435 C 340.211 184.192,340.210 182.258,340.131 181.138 C 340.053 180.018,339.989 181.035,339.990 183.398 M212.012 193.635 C 212.495 193.728,213.286 193.728,213.770 193.635 C 214.253 193.542,213.857 193.466,212.891 193.466 C 211.924 193.466,211.528 193.542,212.012 193.635 M316.704 193.636 C 317.190 193.729,317.893 193.726,318.266 193.628 C 318.640 193.530,318.242 193.454,317.383 193.458 C 316.523 193.462,316.218 193.542,316.704 193.636 M172.559 195.210 C 173.687 195.289,175.532 195.289,176.660 195.210 C 177.788 195.131,176.865 195.066,174.609 195.066 C 172.354 195.066,171.431 195.131,172.559 195.210 M340.008 202.930 C 340.008 207.227,340.065 209.038,340.135 206.954 C 340.205 204.871,340.205 201.355,340.135 199.142 C 340.066 196.928,340.008 198.633,340.008 202.930 M348.986 201.367 C 348.987 204.805,349.046 206.159,349.119 204.376 C 349.192 202.593,349.191 199.781,349.118 198.126 C 349.045 196.471,348.986 197.930,348.986 201.367 M301.699 203.516 C 301.699 205.342,301.766 206.089,301.849 205.176 C 301.931 204.263,301.931 202.769,301.849 201.855 C 301.766 200.942,301.699 201.689,301.699 203.516 M170.869 210.547 C 170.869 215.166,170.926 217.056,170.995 214.746 C 171.064 212.437,171.064 208.657,170.995 206.348 C 170.926 204.038,170.869 205.928,170.869 210.547 M265.716 207.031 C 265.716 207.783,265.796 208.091,265.894 207.715 C 265.993 207.339,265.993 206.724,265.894 206.348 C 265.796 205.972,265.716 206.279,265.716 207.031 M212.012 212.776 C 212.495 212.869,213.286 212.869,213.770 212.776 C 214.253 212.683,213.857 212.606,212.891 212.606 C 211.924 212.606,211.528 212.683,212.012 212.776 M316.313 212.776 C 316.799 212.870,317.502 212.866,317.876 212.768 C 318.249 212.671,317.852 212.594,316.992 212.599 C 316.133 212.603,315.827 212.683,316.313 212.776 M212.212 220.202 C 212.806 220.292,213.685 220.290,214.166 220.197 C 214.646 220.104,214.160 220.031,213.086 220.034 C 212.012 220.037,211.619 220.112,212.212 220.202 M248.344 220.198 C 248.830 220.292,249.533 220.288,249.907 220.190 C 250.280 220.092,249.883 220.016,249.023 220.020 C 248.164 220.025,247.858 220.105,248.344 220.198 M281.163 220.208 C 282.081 220.291,283.488 220.290,284.288 220.206 C 285.088 220.122,284.336 220.054,282.617 220.056 C 280.898 220.057,280.244 220.126,281.163 220.208 M316.113 220.202 C 316.704 220.291,317.671 220.291,318.262 220.202 C 318.853 220.112,318.369 220.039,317.188 220.039 C 316.006 220.039,315.522 220.112,316.113 220.202 " stroke="none" fill="#ec98c7" fill-rule="evenodd"></path></g></svg>